<svg xmlns="http://www.w3.org/2000/svg" width="1661" height="642"><g stroke="#2D2D2D" fill="#FFEBA2"><path d="M1024.548 469.189H1659.513V576.881H1024.548z"/><path d="M297.275 469.189H1019.653V576.881H297.275z"/></g><g stroke="#2D2D2D" fill="#FFEBA2"><path d="M1024.548 409.049H1659.513V464.993H1024.548z"/><path d="M297.275 409.049H1019.653V464.993H297.275z"/></g><path stroke="#2D2D2D" fill="#FFEBA2" d="M1024.548 64.993H1659.513V120.937H1024.548z"/><path stroke="#2D2D2D" fill="#FFEBA2" d="M297.275 64.993H1019.653V120.937H297.275z"/><g stroke="#2D2D2D" fill="#FFEBA2"><path d="M1024.548 580.378H1659.513V637.0210000000001H1024.548z"/><path d="M297.275 580.378H1019.653V637.0210000000001H297.275z"/></g><g stroke="#2D2D2D" fill="#FFEBA2"><path d="M1024.548 237.021H1659.513V349.608H1024.548z"/><path d="M297.275 237.021H1019.653V349.608H297.275z"/></g><g stroke="#2D2D2D" fill="#FFEBA2"><path d="M1024.548 353.105H1659.513V404.853H1024.548z"/><path d="M297.275 353.105H1019.653V404.853H297.275z"/></g></svg>