<svg height="1667" width="2773" xmlns="http://www.w3.org/2000/svg"><g stroke="#2d2d2d"><g fill="#ffeba2"><path d="m1725.52942 1415.35283h1032.35288v235.29411h-1032.35288z"/><path d="m687.29409 1415.35283h1029.41176v235.29411h-1029.41176z"/><path d="m1725.52942 1228.58808h1032.35288v177.94118h-1032.35288z"/><path d="m687.29409 1228.58808h1029.41176v177.94118h-1029.41176z"/><path d="m1725.52942 866.8234h1032.35288v164.70588h-1032.35288z"/><path d="m687.29409 866.8234h1029.41176v164.70589h-1029.41176z"/></g><path d="m1725.52942 1040.35279h1032.35288v177.94118h-1032.35288z" fill="#ff7e7e"/><path d="m687.29409 1040.35279h1029.41176v177.94118h-1029.41176z" fill="#ff7e7e"/><path d="m1725.52942 621.23517h1032.35288v235.29411h-1032.35288z" fill="#ffeba2"/><path d="m687.29409 621.23517h1029.41176v235.29411h-1029.41176z" fill="#ffeba2"/><path d="m1725.52942 434.47046h1032.35288v177.94118h-1032.35288z" fill="#ffeba2"/><path d="m687.29409 434.47046h1029.41176v177.94118h-1029.41176z" fill="#ffeba2"/></g></svg>