<svg xmlns="http://www.w3.org/2000/svg" width="1863" height="895"><g stroke="#2D2D2D" fill="#FFEBA2"><path d="M269.021 683.215H768.234V891.876H269.021z"/><path d="M771.383 683.215H928.863V891.876H771.383z"/><path d="M932.013 683.215H1201.304V891.876H932.013z"/><path d="M1204.454 683.215H1555.635V891.876H1204.454z"/></g><g stroke="#2D2D2D" fill="#FFEBA2"><path d="M269.021 118.648H768.234V296.601H269.021z"/><path d="M771.383 118.648H928.863V296.601H771.383z"/><path d="M932.013 118.648H1201.304V296.601H932.013z"/><path d="M1204.454 118.648H1555.635V296.601H1204.454z"/></g><g stroke="#2D2D2D" fill="#FFEBA2"><path d="M269.021 299.751H768.234V463.53099999999995H269.021z"/><path d="M771.383 299.751H928.863V463.53099999999995H771.383z"/><path d="M932.013 299.751H1201.304V463.53099999999995H932.013z"/><path d="M1204.454 299.751H1555.635V463.53099999999995H1204.454z"/></g><g stroke="#2D2D2D" fill="#FFEBA2"><path d="M269.021 466.68H768.234V680.066H269.021z"/><path d="M771.383 466.68H928.863V680.066H771.383z"/><path d="M932.013 466.68H1201.304V680.066H932.013z"/><path d="M1204.454 466.68H1555.635V680.066H1204.454z"/></g></svg>