<svg height="575" width="1622" xmlns="http://www.w3.org/2000/svg"><g fill="#ffeba2" stroke="#2d2d2d"><path d="m210.05128 458.33333h71.15385v42.30769h-71.15385z"/><path d="m438.89743 508.33333h44.23077v48.07692h-44.23077z"/><path d="m604.28204 512.17949h51.92308v44.23077h-51.92308z"/><path d="m763.89743 512.17949h44.23077v38.46154h-44.23077z"/><path d="m894.66666 512.17949h42.30769v42.30769h-42.30769z"/><path d="m1098.51281 512.17949h155.76923v46.15385h-155.76923z"/><path d="m1440.82051 516.02564h38.46154v36.53846h-38.46154z"/><path d="m210.05128 241.02564h69.23077v36.53846h-69.23077z"/><path d="m517.74358 171.79487h42.30769v42.30769h-42.30769z"/><path d="m686.97435 167.94872h42.30769v48.07692h-42.30769z"/><path d="m819.66666 169.87179h36.53846v42.30769h-36.53846z"/><path d="m1017.74358 166.02564h157.69231v50h-157.69231z"/><path d="m1350.43589 169.87179h48.07692v46.15385h-48.07692z"/></g></svg>