<svg xmlns="http://www.w3.org/2000/svg" width="1749" height="720"><g stroke="#2D2D2D" fill="#FFEBA2"><path d="M229.677 491.274H656.883V717.745H229.677z"/><path d="M659.824 491.274H977.471V717.745H659.824z"/><path d="M980.412 491.274H1297.324V717.745H980.412z"/><path d="M1300.265 491.274H1748.0590000000002V717.745H1300.265z"/></g><path stroke="#2D2D2D" fill="#FFEBA2" d="M229.677 61.863H656.883V157.451H229.677z"/><path stroke="#2D2D2D" fill="#FFEBA2" d="M659.824 61.863H977.471V157.451H659.824z"/><path stroke="#2D2D2D" fill="#FFEBA2" d="M980.412 61.863H1297.324V157.451H980.412z"/><path stroke="#2D2D2D" fill="#FFEBA2" d="M1300.265 61.863H1748.0590000000002V157.451H1300.265z"/><g stroke="#2D2D2D" fill="#FFEBA2"><path d="M229.677 158.922H656.883V301.56899999999996H229.677z"/><path d="M659.824 158.922H977.471V301.56899999999996H659.824z"/><path d="M980.412 158.922H1297.324V301.56899999999996H980.412z"/><path d="M1300.265 158.922H1748.0590000000002V301.56899999999996H1300.265z"/></g><g stroke="null" class="qshape"><path stroke="#2D2D2D" fill="#FF7E7E" class="qshape" d="M229.677 303.774H656.883V489.068H229.677z"/><path stroke="#2D2D2D" fill="#FF7E7E" class="qshape" d="M659.824 303.774H977.471V489.068H659.824z"/><path stroke="#2D2D2D" fill="#FF7E7E" class="qshape" d="M980.412 303.774H1297.324V489.068H980.412z"/><path stroke="#2D2D2D" fill="#FF7E7E" class="qshape" d="M1300.265 303.774H1748.0590000000002V489.068H1300.265z"/></g></svg>