<svg height="825" width="1929" xmlns="http://www.w3.org/2000/svg"><g fill="#ffeba2" stroke="#2d2d2d"><path d="m868.1031 75.14901h58.53659v48.78049h-58.53659z"/><path d="m595.93233 693.6992h47.96748v48.78049h-47.96748z"/><path d="m629.26567 765.24391h51.21951v48.78049h-51.21951z"/><path d="m829.0787 146.69373h64.22764v48.78049h-64.22764z"/><path d="m947.7779 146.69373h378.8618v45.52846h-378.8618z"/><path d="m875.60714 285.5691h226.82928v45.52846h-226.82928z"/><path d="m1308.94049 286.38211h227.64228v43.90244h-227.64228z"/><path d="m875.60714 335.97561h156.91057v45.52846h-156.91057z"/><path d="m814.63153 407.52033h52.84553v45.52846h-52.84553z"/><path d="m947.15186 405.89431h609.75612v51.21951h-609.75612z"/><path d="m1188.61528 479.87805h196.74797v46.34146h-196.74797z"/><path d="m1565.03806 478.25203h159.3496v50.40651h-159.3496z"/><path d="m1405.68846 548.98374h108.94309v48.78049h-108.94309z"/><path d="m1696.74538 550.60976h196.74797v50.40651h-196.74797z"/></g></svg>