<svg xmlns="http://www.w3.org/2000/svg" width="1888" height="1031"><path stroke="#2D2D2D" fill="#FFEBA2" d="M331.091 269.606H696.546V317.788H331.091z"/><path stroke="#2D2D2D" fill="#FFEBA2" d="M185.636 317.788H696.545V402.333H185.636z"/><path stroke-linecap="null" stroke-linejoin="null" stroke-dasharray="null" stroke="#2D2D2D" fill="#FFEBA2" d="M196.545 463.242H522V507.78700000000003H196.545z"/><path stroke-linecap="null" stroke-linejoin="null" stroke-dasharray="null" stroke="#2D2D2D" fill="#FFEBA2" d="M665.636 463.242H704.727V504.151H665.636z"/><path stroke="#2D2D2D" stroke-linecap="null" stroke-linejoin="null" stroke-dasharray="null" fill="#FFEBA2" d="M118.364 507.788H489.273V550.515H118.364z"/><path stroke="#2D2D2D" stroke-linecap="null" stroke-linejoin="null" stroke-dasharray="null" fill="#FFEBA2" d="M305.636 550.515H451.091V590.515H305.636z"/><g stroke="#2D2D2D" stroke-linecap="null" stroke-linejoin="null" stroke-dasharray="null" fill="#FFEBA2"><path d="M1365.636 628.697H1694.7269999999999V669.606H1365.636z"/><path d="M1339.273 669.606H1538.364V711.424H1339.273z"/></g><g stroke-linecap="null" stroke-linejoin="null" stroke-dasharray="null" stroke="#2D2D2D" fill="#FFEBA2"><path d="M303.818 722.333H667.454V768.697H303.818z"/><path d="M152 766.879H632.909V812.3340000000001H152z"/></g><g stroke-linecap="null" stroke-linejoin="null" stroke-dasharray="null" stroke="#2D2D2D" fill="#FFEBA2"><path d="M130.182 893.242H458.36400000000003V935.9689999999999H130.182z"/><path d="M168.364 935.97H492.909V981.4250000000001H168.364z"/></g><g stroke-linecap="null" stroke-linejoin="null" stroke-dasharray="null" stroke="#2D2D2D" fill="#FFEBA2"><path d="M1803.818 830.515H1869.273V868.697H1803.818z"/><path d="M1348.364 868.697H1869.2730000000001V956.879H1348.364z"/></g></svg>