<svg xmlns="http://www.w3.org/2000/svg" width="2345" height="1060"><path stroke="#2D2D2D" transform="rotate(-4.644 1005.624 688.926)" fill="#FFEBA2" d="M646.68 668.003H1364.567V709.85H646.68z"/><path stroke="#2D2D2D" transform="rotate(4.814 1333.132 416.535)" fill="#FFEBA2" d="M997.419 397.585H1668.844V435.486H997.419z"/><path stroke-linecap="null" stroke-linejoin="null" stroke-dasharray="null" stroke="#2D2D2D" fill="#FFEBA2" d="M287.013 423.498H528.597V514.587H287.013z"/><path stroke="#2D2D2D" transform="rotate(-4.644 1023.31 508.548)" fill="#FFEBA2" d="M637.682 487.624H1408.9389999999999V529.471H637.682z"/><path stroke-linecap="null" stroke-linejoin="null" stroke-dasharray="null" stroke="#2D2D2D" fill="#FFEBA2" d="M1748.399 518.548H2007.8049999999998V618.548H1748.399z"/><path stroke-linecap="null" stroke-linejoin="null" stroke-dasharray="null" stroke="#2D2D2D" fill="#FFEBA2" d="M287.013 616.568H526.617V713.598H287.013z"/><g stroke="#2D2D2D" fill="#FFEBA2"><path transform="rotate(4.814 1272.608 794.414)" d="M876.297 773.942H1668.9189999999999V814.886H876.297z"/><path stroke-linecap="null" stroke-linejoin="null" stroke-dasharray="null" d="M1750.38 702.706H2004.835V814.587H1750.38z"/></g><g stroke-linecap="null" stroke-linejoin="null" stroke-dasharray="null" stroke="#2D2D2D" fill="#FFEBA2"><path d="M283.053 805.677H527.607V909.6370000000001H283.053z"/><path d="M122.657 850.231H230.578V894.785H122.657z"/></g></svg>