<svg xmlns="http://www.w3.org/2000/svg" width="1877" height="850"><path fill="#FFEBA2" stroke="#2D2D2D" d="M1257.392 328.307H1783.582V391.005H1257.392z"/><path fill="#FFEBA2" stroke="#2D2D2D" d="M720.09 328.307H1242.312V391.005H720.09z"/><path fill="#FFEBA2" stroke="#2D2D2D" d="M1256.598 109.259H1782.788V171.957H1256.598z"/><path fill="#FFEBA2" stroke="#2D2D2D" d="M719.296 109.259H1241.518V171.957H719.296z"/><path fill="#FFEBA2" stroke="#2D2D2D" d="M1257.392 181.481H1783.582V244.179H1257.392z"/><path fill="#FFEBA2" stroke="#2D2D2D" d="M720.09 181.481H1242.312V244.179H720.09z"/><path fill="#FFEBA2" stroke="#2D2D2D" d="M1256.598 255.291H1782.788V317.989H1256.598z"/><path fill="#FFEBA2" stroke="#2D2D2D" d="M719.296 255.291H1241.518V317.989H719.296z"/><g stroke="#2D2D2D" fill="#FFEBA2"><path d="M1256.598 757.672H1782.788V817.989H1256.598z"/><path d="M719.296 757.672H1241.518V817.989H719.296z"/></g><path fill="#FFEBA2" stroke="#2D2D2D" d="M1257.392 402.116H1783.582V464.81399999999996H1257.392z"/><path fill="#FFEBA2" stroke="#2D2D2D" d="M720.09 402.116H1242.312V464.81399999999996H720.09z"/><g stroke="#2D2D2D" fill="#FFEBA2"><path d="M1256.598 475.926H1782.788V520.37H1256.598z"/><path d="M719.296 475.926H1241.518V520.37H719.296z"/></g><g stroke="#2D2D2D" fill="#FFEBA2"><path d="M1256.598 537.831H1782.788V601.323H1256.598z"/><path d="M719.296 537.831H1241.518V601.323H719.296z"/></g><g stroke="#2D2D2D" fill="#FFEBA2"><path d="M1255.804 610.847H1781.9940000000001V674.3389999999999H1255.804z"/><path d="M718.503 610.847H1240.725V674.3389999999999H718.503z"/></g><g stroke="#2D2D2D" fill="#FFEBA2"><path d="M1255.804 683.862H1781.9940000000001V744.179H1255.804z"/><path d="M718.503 683.862H1240.725V744.179H718.503z"/></g></svg>