<svg xmlns="http://www.w3.org/2000/svg" width="1273" height="1304"><path stroke="#2D2D2D" fill="#FFEBA2" d="M373.36 138.146H433.13V179.52499999999998H373.36z"/><path stroke="#2D2D2D" fill="#FFEBA2" d="M669.912 139.295H737.7280000000001V179.52499999999998H669.912z"/><path stroke-linecap="null" stroke-linejoin="null" stroke-dasharray="null" stroke="#2D2D2D" fill="#FFEBA2" d="M359.567 715.157H545.774V759.985H359.567z"/><path stroke-linecap="null" stroke-linejoin="null" stroke-dasharray="null" stroke="#2D2D2D" fill="#FFEBA2" d="M1171.061 717.456H1260.716V758.835H1171.061z"/><path stroke-linecap="null" stroke-linejoin="null" stroke-dasharray="null" stroke="#2D2D2D" fill="#FFEBA2" d="M122.785 761.134H274.509V803.663H122.785z"/><path stroke-linecap="null" stroke-linejoin="null" stroke-dasharray="null" stroke="#2D2D2D" fill="#FFEBA2" d="M453.82 759.985H658.418V802.514H453.82z"/><g stroke-linecap="null" stroke-linejoin="null" stroke-dasharray="null" stroke="#2D2D2D" fill="#FFEBA2"><path d="M364.165 631.249H557.268V669.1800000000001H364.165z"/><path d="M1074.51 634.697H1263.016V676.076H1074.51z"/><path d="M764.165 676.077H852.6709999999999V714.008H764.165z"/><path d="M1028.533 676.077H1233.1309999999999V717.456H1028.533z"/></g><g stroke-linecap="null" stroke-linejoin="null" stroke-dasharray="null" stroke="#2D2D2D" fill="#FFEBA2"><path d="M371.061 540.444H572.21V584.122H371.061z"/><path d="M759.567 542.743H957.268V586.421H759.567z"/><path d="M580.257 586.421H817.039V630.099H580.257z"/><path d="M996.349 586.421H1202.096V630.099H996.349z"/></g><g stroke-linecap="null" stroke-linejoin="null" stroke-dasharray="null" stroke="#2D2D2D" fill="#FFEBA2"><path d="M297.498 450.789H553.8199999999999V495.61699999999996H297.498z"/><path d="M582.556 496.766H669.912V535.846H582.556z"/><path d="M851.521 495.617H1053.82V538.1460000000001H851.521z"/></g><path stroke-linecap="null" stroke-linejoin="null" stroke-dasharray="null" stroke="#2D2D2D" fill="#FF7E7E" class="qshape" d="M1015.889 850.789H1168.763V899.0649999999999H1015.889z"/></svg>