<svg xmlns="http://www.w3.org/2000/svg" width="1047" height="1149"><g class="qshape"><path stroke-linecap="null" stroke-linejoin="null" stroke-dasharray="null" stroke="#2D2D2D" fill="#FF7E7E" class="qshape" d="M338.185 968.508H825.0540000000001V1000.831H338.185z"/><path stroke-linecap="null" stroke-linejoin="null" stroke-dasharray="null" stroke="#2D2D2D" fill="#FF7E7E" class="qshape" d="M873.539 971.539H1024.0439999999999V1000.832H873.539z"/><path stroke-linecap="null" stroke-linejoin="null" stroke-dasharray="null" stroke="#2D2D2D" fill="#FF7E7E" class="qshape" d="M13.943 1002.852H423.034V1037.195H13.943z"/><path stroke-linecap="null" stroke-linejoin="null" stroke-dasharray="null" stroke="#2D2D2D" fill="#FF7E7E" class="qshape" d="M568.488 1002.852H688.69V1035.175H568.488z"/><path stroke-linecap="null" stroke-linejoin="null" stroke-dasharray="null" stroke="#2D2D2D" fill="#FF7E7E" class="qshape" d="M712.933 1003.862H828.085V1036.185H712.933z"/><path stroke="#2D2D2D" stroke-linecap="null" stroke-linejoin="null" stroke-dasharray="null" fill="#FF7E7E" class="qshape" d="M162.428 1039.215H405.86199999999997V1071.538H162.428z"/><path stroke-linecap="null" stroke-linejoin="null" stroke-dasharray="null" stroke="#2D2D2D" fill="#FF7E7E" class="qshape" d="M12.933 1076.589H110.91300000000001V1109.922H12.933z"/><path stroke-linecap="null" stroke-linejoin="null" stroke-dasharray="null" stroke="#2D2D2D" fill="#FF7E7E" class="qshape" d="M779.599 1040.226H876.5690000000001V1073.5590000000002H779.599z"/><path stroke="#2D2D2D" stroke-linecap="null" stroke-linejoin="null" stroke-dasharray="null" fill="#FF7E7E" class="qshape" d="M900.811 1040.226H1025.053V1075.5800000000002H900.811z"/><path stroke-linecap="null" stroke-linejoin="null" stroke-dasharray="null" stroke="#2D2D2D" fill="#FF7E7E" class="qshape" d="M304.852 1075.579H1025.054V1108.912H304.852z"/><path stroke-linecap="null" stroke-linejoin="null" stroke-dasharray="null" stroke="#2D2D2D" fill="#FF7E7E" class="qshape" d="M12.933 1113.963H159.398V1144.266H12.933z"/><path stroke="#2D2D2D" stroke-linecap="null" stroke-linejoin="null" stroke-dasharray="null" fill="#FF7E7E" class="qshape" d="M207.882 1112.953H321.01300000000003V1145.276H207.882z"/><path stroke-linecap="null" stroke-linejoin="null" stroke-dasharray="null" stroke="#2D2D2D" fill="#FF7E7E" class="qshape" d="M371.518 1112.953H466.467V1146.286H371.518z"/><path stroke="#2D2D2D" stroke-linecap="null" stroke-linejoin="null" stroke-dasharray="null" fill="#FF7E7E" class="qshape" d="M562.428 1111.943H805.862V1147.297H562.428z"/></g></svg>