<svg xmlns="http://www.w3.org/2000/svg" width="2273" height="890"><path fill="#FFEBA2" stroke="#2D2D2D" d="M1326.68 346.538H1843.026V388.846H1326.68z"/><path fill="#FFEBA2" stroke="#2D2D2D" d="M1491.103 433.077H1536.295V466.731H1491.103z"/><path fill="#FFEBA2" stroke="#2D2D2D" d="M1972.833 433.077H2020.91V465.769H1972.833z"/><g class="qshape"><g class="qshape"><path fill="#FF7E7E" stroke="#2D2D2D" stroke-dasharray="null" stroke-linejoin="null" stroke-linecap="null" class="qshape" d="M1380.526 677.308H1491.103V712.885H1380.526z"/><path fill="#FF7E7E" stroke="#2D2D2D" stroke-dasharray="null" stroke-linejoin="null" stroke-linecap="null" class="qshape" d="M1214.18 719.615H1777.642V760H1214.18z"/><path fill="#FF7E7E" stroke-dasharray="null" stroke-linejoin="null" stroke-linecap="null" stroke="#2D2D2D" class="qshape" d="M1888.218 717.692H2261.295V760H1888.218z"/><path fill="#FF7E7E" stroke="#2D2D2D" stroke-dasharray="null" stroke-linejoin="null" stroke-linecap="null" class="qshape" d="M1215.141 760H1547.833V800.385H1215.141z"/></g><path fill="#FF7E7E" stroke="#2D2D2D" stroke-dasharray="null" stroke-linejoin="null" stroke-linecap="null" class="qshape" d="M1838.218 760H1874.756V798.462H1838.218z"/><path fill="#FF7E7E" stroke-dasharray="null" stroke-linejoin="null" stroke-linecap="null" stroke="#2D2D2D" class="qshape" d="M1964.18 760.962H1982.449V797.5H1964.18z"/><path fill="#FF7E7E" stroke="#2D2D2D" stroke-dasharray="null" stroke-linejoin="null" stroke-linecap="null" class="qshape" d="M1972.833 804.231H2003.602V836.923H1972.833z"/></g><g fill="#FFEBA2" stroke="#2D2D2D"><path d="M1444.949 472.5H2059.3720000000003V508.077H1444.949z"/><path d="M1301.68 508.077H1798.795V546.539H1301.68z"/><g stroke-dasharray="null" stroke-linejoin="null" stroke-linecap="null"><path d="M1455.526 639.808H1501.68V671.539H1455.526z"/><path d="M2102.641 640.769H2147.833V673.461H2102.641z"/></g></g></svg>