<svg xmlns="http://www.w3.org/2000/svg" width="1736" height="1018"><path stroke="#2D2D2D" fill="#FFEBA2" d="M491.083 345.393H508.94000000000005V375.75H491.083z"/><path stroke="#2D2D2D" fill="#FFEBA2" d="M600.905 376.643H787.512V413.25H600.905z"/><path stroke="#2D2D2D" fill="#FFEBA2" d="M570.548 413.25H762.512V447.179H570.548z"/><path stroke-linecap="null" stroke-linejoin="null" stroke-dasharray="null" stroke="#2D2D2D" fill="#FFEBA2" d="M815.191 483.786H848.2270000000001V514.143H815.191z"/><path stroke-linecap="null" stroke-linejoin="null" stroke-dasharray="null" stroke="#2D2D2D" fill="#FFEBA2" d="M628.583 483.786H661.6189999999999V514.143H628.583z"/><path stroke-linecap="null" stroke-linejoin="null" stroke-dasharray="null" stroke="#2D2D2D" fill="#FFEBA2" d="M702.691 583.786H719.655V615.929H702.691z"/><path stroke-linecap="null" stroke-linejoin="null" stroke-dasharray="null" stroke="#2D2D2D" fill="#FFEBA2" d="M1369.655 548.964H1386.619V580.214H1369.655z"/><path stroke-linecap="null" stroke-linejoin="null" stroke-dasharray="null" stroke="#2D2D2D" fill="#FFEBA2" d="M710.726 515.929H727.69V548.072H710.726z"/><g stroke-linecap="null" stroke-linejoin="null" stroke-dasharray="null" stroke="#2D2D2D" fill="#FFEBA2"><path d="M630.369 688.25H660.726V718.607H630.369z"/><path d="M869.655 688.25H901.798V717.7139999999999H869.655z"/><path d="M819.655 854.321H837.512V883.7850000000001H819.655z"/><path d="M708.941 819.5H769.655V852.5360000000001H708.941z"/></g><g stroke-linecap="null" stroke-linejoin="null" stroke-dasharray="null" stroke="#2D2D2D" fill="#FFEBA2"><path d="M544.655 900.75H564.298V933.7860000000001H544.655z"/><path d="M608.941 933.786H627.691V965.929H608.941z"/><path d="M573.226 967.714H682.155V998.964H573.226z"/><path d="M892.869 966.821H925.0120000000001V998.964H892.869z"/><path d="M1131.262 967.714H1166.0829999999999V998.964H1131.262z"/></g></svg>