<svg xmlns="http://www.w3.org/2000/svg" width="1046" height="1183"><path stroke="#2D2D2D" fill="#FFEBA2" d="M468.236 49.986H568.236V82.27799999999999H468.236z"/><path stroke="#2D2D2D" fill="#FFEBA2" d="M857.819 53.111H976.569V84.36099999999999H857.819z"/><path stroke="#2D2D2D" fill="#FFEBA2" d="M120.319 86.444H578.652V117.694H120.319z"/><path stroke-linecap="null" stroke-linejoin="null" stroke-dasharray="null" stroke="#2D2D2D" fill="#FFEBA2" d="M780.736 126.028H805.736V155.195H780.736z"/><path stroke-linecap="null" stroke-linejoin="null" stroke-dasharray="null" stroke="#2D2D2D" fill="#FFEBA2" d="M972.403 128.111H996.361V156.236H972.403z"/><path stroke-linecap="null" stroke-linejoin="null" stroke-dasharray="null" stroke="#2D2D2D" fill="#FFEBA2" d="M447.403 198.944H751.5699999999999V232.277H447.403z"/><path stroke-linecap="null" stroke-linejoin="null" stroke-dasharray="null" stroke="#2D2D2D" fill="#FFEBA2" d="M223.444 938.528H815.111V993.736H223.444z"/><g stroke-linecap="null" stroke-linejoin="null" stroke-dasharray="null" stroke="#2D2D2D" fill="#FFEBA2"><path d="M467.194 996.861H733.861V1028.1109999999999H467.194z"/><path d="M804.694 994.778H975.5269999999999V1028.111H804.694z"/><path d="M69.278 1032.278H263.028V1063.528H69.278z"/><path d="M289.069 1031.236H525.527V1063.528H289.069z"/><path d="M671.361 1032.278H859.903V1065.611H671.361z"/><path d="M213.028 1067.694H503.653V1101.027H213.028z"/><path d="M903.653 1071.861H1023.445V1103.111H903.653z"/><path d="M17.194 1105.194H115.111V1136.444H17.194z"/><path d="M346.361 1105.194H1023.444V1138.527H346.361z"/><path d="M14.069 1140.611H204.694V1174.986H14.069z"/><path d="M277.611 1141.653H899.486V1178.111H277.611z"/></g></svg>