<svg xmlns="http://www.w3.org/2000/svg" width="1143" height="1175"><path stroke="#2D2D2D" fill="#FFEBA2" d="M38.787 179.296H567.653V213.317H38.787z"/><path stroke="#2D2D2D" fill="#FFEBA2" d="M772.808 96.821H858.375V130.84199999999998H772.808z"/><path stroke="#2D2D2D" fill="#FFEBA2" d="M886.21 96.821H992.3960000000001V130.84199999999998H886.21z"/><path stroke="#2D2D2D" fill="#FFEBA2" d="M275.9 140.12H329.508V174.14100000000002H275.9z"/><path stroke="#2D2D2D" fill="#FFEBA2" d="M751.158 137.027H1017.137V171.048H751.158z"/><g stroke-linecap="null" stroke-linejoin="null" stroke-dasharray="null" stroke="#2D2D2D" fill="#FFEBA2"><path d="M707.859 274.141H948.065V308.16200000000003H707.859z"/><path d="M253.22 355.584H435.69399999999996V388.574H253.22z"/><path d="M37.756 316.409H354.251V349.399H37.756z"/><path d="M432.601 315.378H751.158V348.368H432.601z"/><path d="M952.189 314.347H1109.921V347.337H952.189z"/></g><g stroke-linecap="null" stroke-linejoin="null" stroke-dasharray="null" stroke="#2D2D2D" fill="#FFEBA2"><path d="M781.055 355.584H992.395V387.543H781.055z"/><path d="M90.333 395.79H143.941V429.81100000000004H90.333z"/><path d="M409.921 396.821H700.643V429.81100000000004H409.921z"/></g><g stroke-linecap="null" stroke-linejoin="null" stroke-dasharray="null" stroke="#2D2D2D" fill="#FFEBA2"><path d="M13.014 435.997H66.622V466.925H13.014z"/><path d="M1069.715 396.821H1123.3229999999999V427.749H1069.715z"/></g><g stroke-linecap="null" stroke-linejoin="null" stroke-dasharray="null" stroke="#2D2D2D" fill="#FFEBA2"><path d="M743.942 889.605H937.756V926.7180000000001H743.942z"/><path d="M223.323 932.904H566.622V967.956H223.323z"/><path d="M118.168 972.079H461.467V1007.131H118.168z"/></g></svg>