<svg xmlns="http://www.w3.org/2000/svg" width="2335" height="400"><g stroke="#2D2D2D" fill="#FFEBA2"><path d="M1242.778 194.444H1427.092V284.64H1242.778z"/><path d="M1242.778 289.542H1427.092V379.73799999999994H1242.778z"/></g><g stroke="#2D2D2D" fill="#FFEBA2"><path d="M1431.013 194.444H1587.876V284.64H1431.013z"/><path d="M1431.013 289.542H1587.876V379.73799999999994H1431.013z"/></g><path stroke="#2D2D2D" fill="#FFEBA2" d="M1592.778 194.444H1763.366V285.62H1592.778z"/><path stroke="#2D2D2D" fill="#FFEBA2" d="M1592.778 290.523H1763.366V380.71900000000005H1592.778z"/><g stroke="#2D2D2D" fill="#FFEBA2"><path d="M2128.072 195.425H2315.327V286.601H2128.072z"/><path d="M2128.072 291.503H2315.327V382.679H2128.072z"/></g><path stroke="#2D2D2D" fill="#FFEBA2" d="M1769.248 194.444H1947.679V285.62H1769.248z"/><path stroke="#2D2D2D" fill="#FFEBA2" d="M1769.248 290.523H1947.679V381.699H1769.248z"/><g stroke="#2D2D2D" fill="#FFEBA2"><path d="M1951.601 194.444H2123.17V285.62H1951.601z"/><path d="M1951.601 290.523H2123.17V381.699H1951.601z"/></g><g stroke="#2D2D2D" fill="#FFEBA2"><path d="M309.445 192.484H649.6410000000001V282.68H309.445z"/><path d="M309.445 287.582H649.6410000000001V377.778H309.445z"/><g><path d="M654.543 193.464H994.739V283.65999999999997H654.543z"/><path d="M654.543 288.562H994.739V378.75800000000004H654.543z"/></g></g></svg>