<svg xmlns="http://www.w3.org/2000/svg" width="2388" height="751"><g stroke="#2D2D2D" fill="#FFEBA2"><path d="M493.481 511.29H1001.562V744.623H493.481z"/><path d="M1006.613 511.29H1569.239V744.623H1006.613z"/><path d="M1574.289 511.29H2386.41V744.623H1574.289z"/></g><path stroke="#2D2D2D" fill="#FFEBA2" d="M493.481 92.098H1001.562V172.906H493.481z"/><path stroke="#2D2D2D" fill="#FFEBA2" d="M1006.613 92.098H1569.239V172.906H1006.613z"/><path stroke="#2D2D2D" fill="#FFEBA2" d="M1574.289 92.098H2386.41V172.906H1574.289z"/><g stroke="#2D2D2D" fill="#FFEBA2"><path d="M493.481 424.421H1001.562V505.229H493.481z"/><path d="M1006.613 424.421H1569.239V505.229H1006.613z"/><path d="M1574.289 424.421H2386.41V505.229H1574.289z"/></g><g stroke="#2D2D2D" fill="#FFEBA2"><path d="M493.481 176.946H1001.562V252.704H493.481z"/><path d="M1006.613 176.946H1569.239V252.704H1006.613z"/><path d="M1574.289 176.946H2386.41V252.704H1574.289z"/></g><g stroke="#2D2D2D" fill="#FFEBA2"><path d="M493.481 343.613H1001.562V419.371H493.481z"/><path d="M1006.613 343.613H1569.239V419.371H1006.613z"/><path d="M1574.289 343.613H2386.41V419.371H1574.289z"/></g><g stroke="#2D2D2D" fill="#FFEBA2"><path d="M493.481 256.744H1001.562V337.552H493.481z"/><path d="M1006.613 256.744H1569.239V337.552H1006.613z"/><path d="M1574.289 256.744H2386.41V337.552H1574.289z"/></g></svg>