<svg height="722" width="1610" xmlns="http://www.w3.org/2000/svg"><g fill="#ffeba2" stroke="#2d2d2d"><path d="m1382.88387 664.51682h155.05618v46.06741h-155.05618z"/><path d="m592.99622 664.51682h164.04494v46.06741h-164.04494z"/><path d="m853.67038 664.51682h164.04494v46.06741h-164.04494z"/><path d="m1117.71533 664.51682h155.05618v46.06741h-155.05618z"/><path d="m1381.76028 494.8539h155.05618v46.06741h-155.05618z"/><path d="m591.87262 494.8539h164.04494v46.06741h-164.04494z"/><path d="m852.54679 494.8539h164.04494v46.06741h-164.04494z"/><path d="m1116.59174 494.8539h155.05618v46.06741h-155.05618z"/><path d="m1381.76028 552.15727h155.05618v46.06741h-155.05618z"/><path d="m591.87262 552.15727h164.04494v46.06741h-164.04494z"/><path d="m852.54679 552.15727h164.04494v46.06741h-164.04494z"/><path d="m1116.59174 552.15727h155.05618v46.06741h-155.05618z"/></g></svg>