<svg xmlns="http://www.w3.org/2000/svg" width="1210" height="630"><path stroke="#2D2D2D" fill="#FFEBA2" d="M245.985 100.203H657.0350000000001V135.01H245.985z"/><path stroke="#2D2D2D" fill="#FFEBA2" d="M709.521 185.838H827.201V226.72199999999998H709.521z"/><path stroke="#2D2D2D" fill="#FFEBA2" d="M947.09 185.838H1180.239V224.512H947.09z"/><path stroke="#2D2D2D" fill="#FFEBA2" d="M64.217 228.932H126.648V266.501H64.217z"/><g stroke="#2D2D2D" fill="#FFEBA2"><path d="M238.803 273.683H622.2280000000001V312.90999999999997H238.803z"/><path d="M214.493 320.092H375.81899999999996V353.794H214.493z"/></g><g stroke-linecap="null" stroke-linejoin="null" stroke-dasharray="null" stroke="#2D2D2D" fill="#FFEBA2"><path d="M242.67 360.976H564.769V400.203H242.67z"/><path d="M877.477 364.843H1180.239V403.517H877.477z"/><path d="M63.112 408.49H651.51V445.507H63.112z"/><path d="M826.096 410.147H1065.875V444.401H826.096z"/></g><g stroke-linecap="null" stroke-linejoin="null" stroke-dasharray="null" stroke="#2D2D2D" fill="#FFEBA2"><path d="M505.101 537.772H1181.344V576.999H505.101z"/><path d="M60.35 580.866H357.588V618.9879999999999H60.35z"/></g></svg>