<svg xmlns="http://www.w3.org/2000/svg" width="1700" height="974"><g stroke="#2D2D2D" fill="#FFEBA2"><path d="M877.493 862.182H1698.006V972.438H877.493z"/><path d="M378.348 862.182H608.263V972.438H378.348z"/><path d="M610.826 862.182H874.0740000000001V972.438H610.826z"/></g><path stroke="#2D2D2D" fill="#FFEBA2" d="M877.493 281.841H1698.006V392.097H877.493z"/><path stroke="#2D2D2D" fill="#FFEBA2" d="M378.348 281.841H608.263V392.097H378.348z"/><path stroke="#2D2D2D" fill="#FFEBA2" d="M610.826 281.841H874.0740000000001V392.097H610.826z"/><g stroke="#2D2D2D" fill="#FFEBA2"><path d="M877.493 396.37H1698.006V509.19100000000003H877.493z"/><path d="M378.348 396.37H608.263V509.19100000000003H378.348z"/><path d="M610.826 396.37H874.0740000000001V509.19100000000003H610.826z"/></g><g stroke="#2D2D2D" fill="#FFEBA2"><path d="M877.493 513.464H1698.006V626.2850000000001H877.493z"/><path d="M378.348 513.464H608.263V626.2850000000001H378.348z"/><path d="M610.826 513.464H874.0740000000001V626.2850000000001H610.826z"/></g><g stroke="#2D2D2D" fill="#FFEBA2"><path d="M877.493 629.704H1698.006V742.525H877.493z"/><path d="M378.348 629.704H608.263V742.525H378.348z"/><path d="M610.826 629.704H874.0740000000001V742.525H610.826z"/></g></svg>