<svg xmlns="http://www.w3.org/2000/svg" width="1280" height="1823"><path stroke="#2D2D2D" fill="#FFEBA2" d="M546.452 422.161H673.871V467.322H546.452z"/><path stroke="#2D2D2D" fill="#FFEBA2" d="M701.29 420.548H817.419V468.935H701.29z"/><path stroke="#2D2D2D" fill="#FFEBA2" d="M841.613 418.935H1070.645V472.161H841.613z"/><path stroke="#2D2D2D" fill="#FFEBA2" d="M98.064 465.71H328.709V512.4839999999999H98.064z"/><path stroke="#2D2D2D" stroke-linecap="null" stroke-linejoin="null" stroke-dasharray="null" fill="#FFEBA2" d="M673.871 507.645H788.387V552.806H673.871z"/><path stroke="#2D2D2D" stroke-linecap="null" stroke-linejoin="null" stroke-dasharray="null" fill="#FFEBA2" d="M843.226 506.032H957.742V551.193H843.226z"/><path stroke="#2D2D2D" stroke-linecap="null" stroke-linejoin="null" stroke-dasharray="null" fill="#FFEBA2" d="M1012.581 504.419H1152.904V554.419H1012.581z"/><path stroke-linecap="null" stroke-linejoin="null" stroke-dasharray="null" stroke="#2D2D2D" fill="#FFEBA2" d="M1212.581 506.032H1246.452V551.193H1212.581z"/><path stroke-linecap="null" stroke-linejoin="null" stroke-dasharray="null" stroke="#2D2D2D" fill="#FFEBA2" d="M38.387 551.194H412.581V597.968H38.387z"/><path stroke="#2D2D2D" stroke-linecap="null" stroke-linejoin="null" stroke-dasharray="null" fill="#FFEBA2" d="M844.839 596.355H931.936V639.903H844.839z"/><g stroke-linecap="null" stroke-linejoin="null" stroke-dasharray="null" stroke="#2D2D2D" fill="#FFEBA2"><path d="M533.548 638.29H667.419V686.6769999999999H533.548z"/><path d="M698.065 636.677H810.9680000000001V686.677H698.065z"/><path d="M841.613 641.516H930.3230000000001V688.29H841.613z"/></g><g stroke-linecap="null" stroke-linejoin="null" stroke-dasharray="null" stroke="#2D2D2D" fill="#FFEBA2"><path d="M819.032 899.581H875.484V939.904H819.032z"/><path d="M1104.516 899.581H1160.968V939.904H1104.516z"/></g><g stroke-linecap="null" stroke-linejoin="null" stroke-dasharray="null" stroke="#2D2D2D" fill="#FFEBA2"><path d="M741.613 857.645H799.6780000000001V897.968H741.613z"/><path d="M1027.097 857.645H1086.774V896.355H1027.097z"/></g><g stroke-linecap="null" stroke-linejoin="null" stroke-dasharray="null" stroke="#2D2D2D" fill="#FFEBA2"><path d="M788.387 764.097H870.645V812.4839999999999H788.387z"/><path d="M1098.065 764.097H1243.226V809.258H1098.065z"/><path d="M141.613 809.258H202.903V854.4190000000001H141.613z"/></g><g stroke-linecap="null" stroke-linejoin="null" stroke-dasharray="null" stroke="#2D2D2D" fill="#FFEBA2"><path d="M341.613 980.226H620.645V1030.226H341.613z"/><path d="M704.516 980.226H990V1030.226H704.516z"/><path d="M291.613 1031.839H367.419V1072.162H291.613z"/><path d="M875.484 1070.548H941.613V1115.709H875.484z"/></g></svg>