<svg xmlns="http://www.w3.org/2000/svg" width="1712" height="843"><path stroke="#2D2D2D" fill="#FFEBA2" d="M279.605 103.173H648.494V240.951H279.605z"/><path stroke="#2D2D2D" stroke-linecap="null" stroke-linejoin="null" stroke-dasharray="null" fill="#FFEBA2" d="M867.753 103.173H1172.1970000000001V242.432H867.753z"/><path stroke-linecap="null" stroke-linejoin="null" stroke-dasharray="null" stroke="#2D2D2D" fill="#FFEBA2" d="M652.198 103.173H864.05V242.432H652.198z"/><path stroke-linecap="null" stroke-linejoin="null" stroke-dasharray="null" stroke="#2D2D2D" fill="#FFEBA2" d="M1175.161 103.173H1312.939V243.173H1175.161z"/><g stroke="#2D2D2D" fill="#FFEBA2"><path d="M279.605 246.876H648.494V386.135H279.605z"/><path stroke-linecap="null" stroke-linejoin="null" stroke-dasharray="null" d="M867.753 246.876H1172.1970000000001V386.135H867.753z"/><path stroke-linecap="null" stroke-linejoin="null" stroke-dasharray="null" d="M652.198 247.617H864.05V386.876H652.198z"/><path stroke-linecap="null" stroke-linejoin="null" stroke-dasharray="null" d="M1175.161 246.876H1312.939V386.876H1175.161z"/></g><g stroke="#2D2D2D" fill="#FFEBA2"><path d="M279.605 390.58H648.494V531.321H279.605z"/><path stroke-linecap="null" stroke-linejoin="null" stroke-dasharray="null" d="M651.457 390.58H863.309V531.321H651.457z"/><path stroke-linecap="null" stroke-linejoin="null" stroke-dasharray="null" d="M867.753 390.58H1172.1970000000001V532.0609999999999H867.753z"/><path stroke-linecap="null" stroke-linejoin="null" stroke-dasharray="null" d="M1175.161 391.321H1312.939V531.321H1175.161z"/></g></svg>