<svg height="824" width="1491" xmlns="http://www.w3.org/2000/svg"><g fill="#ffeba2" stroke="#2d2d2d"><path d="m821.7659 246.21277h150v51.06383h-150z"/><path d="m1301.55313 250.46809h163.82977v51.06383h-163.82977z"/><path d="m1055.80846 248.34043h163.82977v51.06383h-163.82977z"/><path d="m818.57441 320.68086h153.19151v51.06383h-153.19151z"/><path d="m1299.42547 323.87234h163.82977v51.06383h-163.82977z"/><path d="m1053.6808 321.74469h163.82977v51.06383h-163.82977z"/><path d="m820.70207 389.82979h152.12766v51.06383h-152.12766z"/><path d="m1299.42547 391.95745h163.82977v51.06383h-163.82977z"/><path d="m1053.6808 389.82979h163.82977v51.06383h-163.82977z"/><path d="m1297.29781 465.36171h163.82977v51.06383h-163.82977z"/><path d="m1051.55314 463.23405h163.82977v51.06383h-163.82977z"/><path d="m808.99995 602.59575h165.95743v51.06383h-165.95743z"/><path d="m1297.29781 607.9149h163.82977v51.06383h-163.82977z"/><path d="m1297.29781 607.9149h163.82977v51.06383h-163.82977z"/><path d="m1051.55314 605.78724h163.82977v51.06383h-163.82977z"/><path d="m1051.55314 605.78724h163.82977v51.06383h-163.82977z"/><path d="m808.99994 672.80852h163.82977v51.06383h-163.82977z"/><path d="m1296.23398 679.1915h163.82977v51.06383h-163.82977z"/><path d="m1296.23398 679.1915h163.82977v51.06383h-163.82977z"/><path d="m1296.23398 679.1915h163.82977v51.06383h-163.82977z"/><path d="m1296.23398 679.1915h163.82977v51.06383h-163.82977z"/><path d="m1050.48931 677.06384h163.82977v51.06383h-163.82977z"/><path d="m1050.48931 677.06384h163.82977v51.06383h-163.82977z"/><path d="m1050.48931 677.06384h163.82977v51.06383h-163.82977z"/><path d="m1050.48931 677.06384h163.82977v51.06383h-163.82977z"/><path d="m805.80844 745.14895h176.59576v51.06383h-176.59576z"/><path d="m1298.36164 751.53192h163.82977v51.06383h-163.82977z"/><path d="m1298.36164 751.53192h163.82977v51.06383h-163.82977z"/><path d="m1052.61697 749.40426h163.82977v51.06383h-163.82977z"/><path d="m1052.61697 749.40426h163.82977v51.06383h-163.82977z"/><path d="m581.95887 530.25533h160.6383v51.06383h-160.6383z"/><path d="m1295.17015 535.57448h163.82977v51.06383h-163.82977z"/><path d="m1295.17015 535.57448h163.82977v51.06383h-163.82977z"/><path d="m1295.17015 535.57448h163.82977v51.06383h-163.82977z"/><path d="m1295.17015 535.57448h163.82977v51.06383h-163.82977z"/><path d="m1049.42548 533.44682h163.82977v51.06383h-163.82977z"/><path d="m1049.42548 533.44682h163.82977v51.06383h-163.82977z"/><path d="m1049.42548 533.44682h163.82977v51.06383h-163.82977z"/><path d="m1049.42548 533.44682h163.82977v51.06383h-163.82977z"/></g></svg>